<svg width="400" height="400" viewBox="0 0 400 400" fill="none" xmlns="http://www.w3.org/2000/svg">
<rect x="13.8869" y="151.739" width="273.987" height="269.298" rx="16" transform="rotate(-30 13.8869 151.739)" fill="#FE5944" stroke="black" stroke-width="8"/>
<path d="M104.184 236.04C104.184 236.04 86.065 204.763 72.2634 180.752C58.4617 156.74 91.1279 137.471 105.109 161.788C119.089 186.105 137.03 217.077 137.03 217.077" stroke="white" stroke-width="25" stroke-linecap="round"/>
<path d="M137.024 217.02C137.024 217.02 118.904 185.742 105.103 161.731C91.301 137.72 123.967 118.451 137.948 142.768C151.929 167.085 169.869 198.056 169.869 198.056" stroke="white" stroke-width="25" stroke-linecap="round"/>
<circle cx="223.652" cy="119.115" r="42.5" transform="rotate(-30 223.652 119.115)" stroke="white" stroke-width="25"/>
<circle cx="280.152" cy="216.976" r="42.5" transform="rotate(-30 280.152 216.976)" stroke="white" stroke-width="25"/>
<path d="M163.369 336.284C163.369 336.284 119.407 264.871 126.362 260.855C133.318 256.839 214.26 306.902 222.375 302.217C230.49 297.532 185.429 226.753 185.429 226.753" stroke="white" stroke-width="25" stroke-linecap="round"/>
</svg>
